<?xml version="1.0" encoding="UTF-8" standalone="no"?>
<!-- Created with Inkscape (http://www.inkscape.org/) -->

<svg
   xmlns:dc="http://purl.org/dc/elements/1.1/"
   xmlns:cc="http://creativecommons.org/ns#"
   xmlns:rdf="http://www.w3.org/1999/02/22-rdf-syntax-ns#"
   xmlns:svg="http://www.w3.org/2000/svg"
   xmlns="http://www.w3.org/2000/svg"
   version="1.1"
   width="256"
   height="256"
   id="svg3007">
  <title
     id="title3028">Flycheck Logo</title>
  <defs
     id="defs3009" />
  <metadata
     id="metadata3012">
    <rdf:RDF>
      <cc:Work
         rdf:about="">
        <dc:format>image/svg+xml</dc:format>
        <dc:type
           rdf:resource="http://purl.org/dc/dcmitype/StillImage" />
        <dc:title>Flycheck Logo</dc:title>
        <dc:creator>
          <cc:Agent>
            <dc:title>Sebastian Wiesner</dc:title>
          </cc:Agent>
        </dc:creator>
        <dc:rights>
          <cc:Agent>
            <dc:title>Copyright (C) 2014 Sebastian Wiesner</dc:title>
          </cc:Agent>
        </dc:rights>
        <cc:license
           rdf:resource="http://creativecommons.org/licenses/by-sa/4.0/" />
      </cc:Work>
      <cc:License
         rdf:about="http://creativecommons.org/licenses/by-sa/3.0/">
        <cc:permits
           rdf:resource="http://creativecommons.org/ns#Reproduction" />
        <cc:permits
           rdf:resource="http://creativecommons.org/ns#Distribution" />
        <cc:requires
           rdf:resource="http://creativecommons.org/ns#Notice" />
        <cc:requires
           rdf:resource="http://creativecommons.org/ns#Attribution" />
        <cc:permits
           rdf:resource="http://creativecommons.org/ns#DerivativeWorks" />
        <cc:requires
           rdf:resource="http://creativecommons.org/ns#ShareAlike" />
      </cc:License>
    </rdf:RDF>
  </metadata>
  <g
     transform="translate(0,192)"
     id="layer1">
    <path
       d="m 45.347346,-13.742775 3.834571,-3.328834 4.511523,3.328834 4.173046,-3.29785 4.173048,3.29785 4.173047,-3.29785 4.173048,3.29785 3.834571,-3.328834 4.511524,3.328834 4.173046,-3.29785 4.173047,3.29785 4.173051,-3.29785 4.173048,3.29785 3.83456,-3.328834 4.511534,3.328834 4.17305,-3.29785 4.17303,3.29785 4.17306,-3.29785 4.17305,3.29785 3.83457,-3.328834 4.51154,3.328834 4.17304,-3.29785 4.17304,3.29785 4.17304,-3.29785 4.17306,3.29785 4.17304,-3.29785 4.17305,3.29785 4.17305,-3.29785 4.17304,3.29785 4.17304,-3.29785 4.17305,3.29785 3.83459,-3.328834 4.51151,3.328834 4.17305,-3.29785 4.17306,3.29785 4.17303,-3.29785 4.17304,3.29785 3.83457,-3.328834 4.51155,3.328834 4.17303,-3.29785 4.17304,3.29785 4.17306,-3.29785 4.17305,3.29785 3.83456,-3.328834 4.51154,3.328834 4.17304,-3.29785 4.17305,3.29785 4.17305,-3.29785 4.17304,3.29785 3.83456,-3.328834"
       id="path3923"
       style="fill:none;stroke:#ff0000;stroke-width:1.77537644;stroke-linecap:butt;stroke-linejoin:round;stroke-miterlimit:4;stroke-opacity:1;stroke-dasharray:none" />
    <text
       x="-11.331055"
       y="-41.734375"
       id="text3951"
       xml:space="preserve"
       style="font-size:40px;font-style:normal;font-variant:normal;font-weight:300;font-stretch:normal;line-height:125%;letter-spacing:0px;word-spacing:0px;fill:#000000;fill-opacity:1;stroke:none;font-family:Source Code Pro;-inkscape-font-specification:Source Code Pro Light"><tspan
         x="-11.331055"
         y="-41.734375"
         id="tspan3953"
         style="font-size:100px;font-style:normal;font-variant:normal;font-weight:bold;font-stretch:normal;font-family:Anonymous Pro;-inkscape-font-specification:Anonymous Pro Bold"><tspan
   id="tspan3955"
   style="font-size:100px;font-style:normal;font-variant:normal;font-weight:bold;font-stretch:normal;fill:#ff0000;font-family:Anonymous Pro;-inkscape-font-specification:Anonymous Pro Bold">!</tspan>Flyc</tspan></text>
  </g>
</svg>
